<?xml version="1.0" encoding="UTF-8"?>
<svg width="52px" height="47px" viewBox="0 0 52 47" version="1.1" xmlns="http://www.w3.org/2000/svg" xmlns:xlink="http://www.w3.org/1999/xlink">
    <!-- Generator: Sketch 44.1 (41455) - http://www.bohemiancoding.com/sketch -->
    <title>Page 1</title>
    <desc>Created with Sketch.</desc>
    <defs></defs>
    <g id="Page-1" stroke="none" stroke-width="1" fill="none" fill-rule="evenodd">
        <g id="Teaser-[1440px]-State-1" transform="translate(-1205.000000, -708.000000)" fill="#FFFFFF">
            <g id="Group-2" transform="translate(70.000000, 708.000000)">
                <g id="Page-1" transform="translate(1135.000000, 0.000000)">
                    <path d="M17.4423326,42.6463071 C17.4423326,45.0167659 15.5402274,46.9387894 13.1931116,46.9387894 C10.8465432,46.9387894 8.94443789,45.0167659 8.94443789,42.6463071 C8.94443789,40.2758482 10.8465432,38.3538247 13.1931116,38.3538247 C15.5402274,38.3538247 17.4423326,40.2758482 17.4423326,42.6463071" id="Fill-1"></path>
                    <path d="M51.9969895,23.2027388 C51.9969895,25.5731976 50.0948842,27.4952212 47.7477684,27.4952212 C45.4012,27.4952212 43.4990947,25.5731976 43.4990947,23.2027388 C43.4990947,20.83228 45.4012,18.9102565 47.7477684,18.9102565 C50.0948842,18.9102565 51.9969895,20.83228 51.9969895,23.2027388" id="Fill-4"></path>
                    <path d="M38.5066021,22.2888376 C38.5066021,24.6592965 36.6044968,26.58132 34.2573811,26.58132 C31.9108126,26.58132 30.0087074,24.6592965 30.0087074,22.2888376 C30.0087074,19.9183788 31.9108126,17.9963553 34.2573811,17.9963553 C36.6044968,17.9963553 38.5066021,19.9183788 38.5066021,22.2888376" id="Fill-7"></path>
                    <path d="M7.20637895,27.5890553 C5.52157895,29.2390318 2.83126316,29.1964553 1.19791579,27.4945024 C-0.435431579,25.7919965 -0.393284211,23.0748435 1.29151579,21.4248671 C2.97686316,19.7748906 5.66663158,19.8174671 7.29997895,21.51942 C8.93332632,23.2219259 8.89117895,25.9390788 7.20637895,27.5890553" id="Fill-12"></path>
                    <path d="M22.0495326,7.92735176 C20.3647326,9.57732824 17.6744168,9.53475176 16.0410695,7.83279882 C14.4077221,6.13029294 14.4498695,3.41314 16.1346695,1.76316353 C17.8200168,0.113187059 20.5097853,0.155763529 22.1431326,1.85771647 C23.77648,3.56022235 23.7343326,6.27737529 22.0495326,7.92735176" id="Fill-9"></path>
                </g>
            </g>
        </g>
    </g>
</svg>