<?xml version="1.0" encoding="UTF-8"?>
<svg width="119px" height="54px" viewBox="0 0 119 54" version="1.1" xmlns="http://www.w3.org/2000/svg" xmlns:xlink="http://www.w3.org/1999/xlink">
    <!-- Generator: Sketch 44.1 (41455) - http://www.bohemiancoding.com/sketch -->
    <title>Page 1</title>
    <desc>Created with Sketch.</desc>
    <defs></defs>
    <g id="Symbols" stroke="none" stroke-width="1" fill="none" fill-rule="evenodd">
        <g id="Footer-v3" transform="translate(-1246.000000, -47.000000)">
            <g id="Group-25">
                <g id="Page-1" transform="translate(1246.000000, 47.000000)">
                    <polygon id="Fill-1" fill="#000000" points="4.33043259 0.37732028 0.0584832278 3.3982993 0.0584832278 36.7612364 4.33043259 36.7612364"></polygon>
                    <g id="Group-14" transform="translate(0.000000, 11.693832)">
                        <path d="M106.555989,20.7816168 C102.067882,20.7816168 98.4259544,17.1292531 98.4259544,12.6291273 C98.4259544,8.12862378 102.067882,4.47626014 106.555989,4.47626014 C111.052758,4.47626014 114.686401,8.12862378 114.686401,12.6291273 C114.686401,17.1292531 111.052758,20.7816168 106.555989,20.7816168 M106.538666,0.192511888 C99.6686759,0.192511888 94.1536285,5.72279161 94.1536285,12.6464979 C94.1536285,19.5354629 99.6686759,25.0657427 106.538666,25.0657427 C113.451964,25.0657427 118.95835,19.5354629 118.95835,12.6464979 C118.95835,5.72279161 113.451964,0.192511888 106.538666,0.192511888" id="Fill-2" fill="#000000"></path>
                        <path d="M104.541914,29.9314448 C104.541914,34.4047594 100.929737,38.035221 96.460082,38.035221 C91.9990883,38.035221 88.3786263,34.4047594 88.3786263,29.9314448 L84.1322845,29.9488154 C84.1322845,36.7966196 89.6141927,42.2936685 96.4431358,42.2936685 C103.315009,42.2936685 108.788633,36.7966196 108.788633,29.9488154 L104.541914,29.9314448 Z" id="Fill-4" fill="#1D1D1B"></path>
                        <path d="M62.3358152,29.9314448 C62.3358152,34.4047594 58.723638,38.035221 54.2539829,38.035221 C49.7929892,38.035221 46.1725272,34.4047594 46.1725272,29.9314448 L41.9261854,29.9488154 C41.9261854,36.7966196 47.4080937,42.2936685 54.2370367,42.2936685 C61.1089101,42.2936685 66.5825335,36.7966196 66.5825335,29.9488154 L62.3358152,29.9314448 Z" id="Fill-6" fill="#1D1D1B"></path>
                        <path d="M67.0452402,26.5960196 C67.0452402,22.1227049 70.6574174,18.4922434 75.1270725,18.4922434 C79.5880661,18.4922434 83.2085282,22.1227049 83.2085282,26.5960196 L87.4548699,26.578649 C87.4548699,19.7308448 81.9729617,14.2337958 75.1440187,14.2337958 C68.2721453,14.2337958 62.7985218,19.7308448 62.7985218,26.578649 L67.0452402,26.5960196 Z" id="Fill-8" fill="#1D1D1B"></path>
                        <path d="M24.8391411,26.5960196 C24.8391411,22.1227049 28.4513184,18.4922434 32.9209734,18.4922434 C37.3819671,18.4922434 41.0024291,22.1227049 41.0024291,26.5960196 L45.2487709,26.578649 C45.2487709,19.7308448 39.7668627,14.2337958 32.9379196,14.2337958 C26.0660462,14.2337958 20.5924228,19.7308448 20.5924228,26.578649 L24.8391411,26.5960196 Z" id="Fill-10" fill="#1D1D1B"></path>
                        <path d="M20.4097804,29.9314448 C20.4097804,34.4047594 16.7976032,38.035221 12.3279481,38.035221 C7.86695443,38.035221 4.24649241,34.4047594 4.24649241,29.9314448 L0.000150632911,29.9488154 C0.000150632911,36.7966196 5.48205886,42.2936685 12.3110019,42.2936685 C19.1828753,42.2936685 24.6564987,36.7966196 24.6564987,29.9488154 L20.4097804,29.9314448 Z" id="Fill-12" fill="#1D1D1B"></path>
                    </g>
                </g>
            </g>
        </g>
    </g>
</svg>