<?xml version="1.0" encoding="utf-8"?>
<!-- Generator: Adobe Illustrator 19.2.0, SVG Export Plug-In . SVG Version: 6.00 Build 0)  -->
<svg version="1.1" id="Layer_1" xmlns="http://www.w3.org/2000/svg" xmlns:xlink="http://www.w3.org/1999/xlink" x="0px" y="0px"
	 viewBox="0 0 562 226" style="enable-background:new 0 0 562 226;" xml:space="preserve">
<style type="text/css">
	.st0{opacity:0.5;fill:#FF0000;}
	.st1{fill:#FFFFFF;}
	.st2{clip-path:url(#SVGID_2_);}
	.st3{clip-path:url(#SVGID_4_);}
	.st4{opacity:0.5;clip-path:url(#SVGID_4_);fill:#E30613;}
	.st5{opacity:0.5;fill:none;stroke:#FF0000;stroke-miterlimit:10;}
	.st6{fill:none;stroke:#000000;stroke-miterlimit:10;}
	.st7{fill:#FF0000;}
	.st8{fill:none;stroke:#FF0000;stroke-miterlimit:10;}
	.st9{clip-path:url(#SVGID_6_);}
	.st10{clip-path:url(#SVGID_8_);}
	.st11{clip-path:url(#SVGID_10_);}
	.st12{fill:#FFFF00;}
	.st13{clip-path:url(#SVGID_12_);}
	.st14{fill:#0000FF;}
	.st15{fill:none;}
</style>
<g>
	<path d="M1,13.5V157h18V1L1,13.5z"/>
	<path d="M352.8,65.5V157h18V53L352.8,65.5z"/>
	<path d="M233.5,65.5V105h18V53L233.5,65.5z"/>
	<polygon points="389.9,117.9 389.9,39.5 407.9,27 407.9,118 	"/>
	<path d="M509.1,53c-28.8,0-51.9,23.1-51.9,52.1c0,28.8,23.1,51.9,51.9,51.9c29,0,52.1-23.1,52.1-51.9C561.2,76.1,538.1,53,509.1,53
		z M509.1,138.9c-18.8,0-34-15.2-34-34s15.2-34,34-34c18.8,0,34,15.2,34,34S527.9,138.9,509.1,138.9z"/>
	<path d="M318.7,53c-28.8,0-51.9,23.1-51.9,52.1c0,28.8,23.1,51.9,51.9,51.9c29,0,52.1-23.1,52.1-51.9C370.8,76.1,347.7,53,318.7,53
		z M318.7,138.9c-18.8,0-34-15.2-34-34s15.2-34,34-34c18.8,0,34,15.2,34,34S337.5,138.9,318.7,138.9z"/>
	<path d="M199.4,53c-28.8,0-51.9,23.1-51.9,52.1c0,28.8,23.1,51.9,51.9,51.9c29,0,52.1-23.1,52.1-51.9C251.5,76.1,228.4,53,199.4,53
		z M199.4,138.9c-18.8,0-34-15.2-34-34s15.2-34,34-34c18.8,0,34,15.2,34,34S218.2,138.9,199.4,138.9z"/>
	<path d="M233.4,173c0,19-15.2,33.9-34,33.9c-11.5,0-21.6-5.7-27.8-14.4l-14.8,10.4c9.4,13.4,24.9,22.1,42.6,22.1
		c29,0,52.1-23.1,52.1-51.9c0,0,0-0.1,0-0.1H233.4z"/>
	<rect x="389.9" y="53" width="52" height="18"/>
	<g>
		<path class="st15" d="M83.3,70.9C69,70.9,56.9,82,53.3,96h59.8C109.6,82,97.6,70.9,83.3,70.9z"/>
		<path d="M83.2,53C56,53,34.3,76.1,34.3,105.1c0,3,0.3,5.9,0.7,8.9h0.1c4.2,25,25.4,43,51.3,43c17.7,0,33.2-8.7,42.6-22.1
			l-14.8-10.4c-6.2,8.7-16.3,14.4-27.8,14.4c-15.7,0-28.9-9.9-32.8-24.9h77.3h0.7c0.5-3,0.7-5.9,0.7-8.9
			C132.3,76.1,110.5,53,83.2,53z M53.3,96C56.9,82,69,70.9,83.3,70.9c14.3,0,26.3,11.1,29.9,25.1H53.3z"/>
	</g>
	<path d="M428.9,139c-11.6,0-21-9-21-21h-18c0,22,17.5,39,39,39c13.2,0,24.9-6.6,31.9-16.6L446.1,130C442.3,135.5,436,139,428.9,139
		z"/>
</g>
</svg>
