<?xml version="1.0" encoding="UTF-8"?>
<svg width="232px" height="53px" viewBox="0 0 232 53" version="1.1" xmlns="http://www.w3.org/2000/svg" xmlns:xlink="http://www.w3.org/1999/xlink">
    <!-- Generator: Sketch 44.1 (41455) - http://www.bohemiancoding.com/sketch -->
    <title>Group 7</title>
    <desc>Created with Sketch.</desc>
    <defs>
        <polygon id="path-1" points="24.8171606 24.2999584 24.8171606 0.120845608 0.128422709 0.120845608 0.128422709 24.2999584"></polygon>
    </defs>
    <g id="Page-1" stroke="none" stroke-width="1" fill="none" fill-rule="evenodd">
        <g id="Teaser-[1440px]-State-1" transform="translate(-50.000000, -38.000000)">
            <g id="Group-5" transform="translate(50.000000, 38.000000)">
                <g id="Group-7">
                    <g id="logowhite">
                        <g id="Page-1" transform="translate(0.000000, 0.420635)">
                            <path d="M28.0315968,21.142831 C27.9634682,19.199403 27.3340556,17.5950888 26.1407297,16.332689 C24.9447741,15.0679555 23.2360614,14.4366389 21.0122009,14.4366389 C19.9840568,14.4366389 19.0288223,14.6242835 18.1491269,14.994438 C17.2715829,15.3669264 16.4987417,15.8628775 15.8351454,16.4773901 C15.1715491,17.0944699 14.6320185,17.8063056 14.218705,18.6156977 C13.8032402,19.4271904 13.5625192,20.2671565 13.4970201,21.142831 L28.0315968,21.142831 Z M32.5111111,22.6972 L32.5111111,23.4991238 C32.5111111,23.7768564 32.4941387,24.0592567 32.4599549,24.3512261 L13.4970201,24.3512261 C13.5285744,25.3881722 13.752084,26.351601 14.1677879,27.2415122 C14.5834918,28.1337574 15.1376043,28.9025399 15.8351454,29.5504271 C16.5326865,30.1983142 17.3542934,30.7178376 18.2997269,31.1047961 C19.2451605,31.4938551 20.2489216,31.6885013 21.3112495,31.6885013 C22.9711966,31.6885013 24.3882712,31.3253485 25.5670152,30.5946083 C26.7433688,29.8659687 27.6500767,29.0330042 28.2794892,28.0933812 L31.6142042,30.4261016 C30.2872506,32.1440762 28.7606922,33.3899053 27.035007,34.1682567 C25.3093218,34.9442743 23.4014824,35.3333333 21.3112495,35.3333333 C19.5513805,35.3333333 17.9084059,35.0415974 16.3820865,34.460226 C14.855528,33.8762874 13.5383754,33.050558 12.4251303,31.9802373 C11.3142758,30.9124838 10.4417518,29.6311796 9.81233926,28.1407591 C9.18268769,26.650572 8.86666667,24.9988798 8.86666667,23.1835822 C8.86666667,21.4037596 9.17312578,19.7569687 9.7879564,18.2525448 C10.4003965,16.7455537 11.2559482,15.4500128 12.3522208,14.3631215 C13.4458639,13.2787974 14.7317013,12.436264 16.2094941,11.8359881 C17.6848963,11.2378128 19.2865157,10.9365079 21.0122009,10.9365079 C22.8375689,10.9365079 24.4635712,11.2378128 25.8902077,11.8359881 C27.3170833,12.436264 28.5202102,13.2619934 29.4995885,14.3157435 C30.4768154,15.3669264 31.2252737,16.6080878 31.7406605,18.0317591 C32.2534177,19.4579977 32.5111111,21.0147006 32.5111111,22.6972 L32.5111111,22.6972 Z" id="Fill-1" fill="#FFFFFF"></path>
                            <polygon id="Fill-3" fill="#FFFFFF" points="0 2.88155093 0 35.7539683 4.22222222 35.7539683 4.22222222 0"></polygon>
                            <path d="M92.8888889,7.52722985 L97.0193849,4.62698413 L97.0193849,12.1960392 L106.577117,12.1960392 L106.577117,16.4021992 L97.0193849,16.4021992 L97.0193849,25.3991549 C97.0193849,29.5793101 98.356365,32.1750631 101.653691,31.9930295 C102.481511,31.9471664 102.857392,31.7043761 103.232574,31.522106 C103.510297,31.3871174 103.995964,31.0483456 104.06272,31.0074471 C104.343468,30.8346333 104.571647,30.6670205 104.958925,30.4273034 L107.244444,33.9372437 C105.854199,35.1147889 103.479129,36.1746032 100.582804,36.1746032 C94.7324699,36.1746032 92.8888889,32.6407857 92.8888889,25.8703148 L92.8888889,7.52722985 Z" id="Fill-5" fill="#FFFFFF"></path>
                            <g id="Group-9" transform="translate(108.511111, 10.936508)">
                                <mask id="mask-2" fill="white">
                                    <use xlink:href="#path-1"></use>
                                </mask>
                                <g id="Clip-8"></g>
                                <path d="M12.4727086,20.1355365 C8.00579054,20.1355365 4.38063075,16.5852175 4.38063075,12.2105182 C4.38063075,7.8355865 8.00579054,4.28549988 12.4727086,4.28549988 C16.9481677,4.28549988 20.5650238,7.8355865 20.5650238,12.2105182 C20.5650238,16.5852175 16.9481677,20.1355365 12.4727086,20.1355365 M12.4553895,0.120845608 C5.61764535,0.120845608 0.128422709,5.49697652 0.128422709,12.2272474 C0.128422709,18.9240598 5.61764535,24.2999584 12.4553895,24.2999584 C19.3363129,24.2999584 24.8172318,18.9240598 24.8172318,12.2272474 C24.8172318,5.49697652 19.3363129,0.120845608 12.4553895,0.120845608" id="Fill-7" fill="#FFFFFF" mask="url(#mask-2)"></path>
                            </g>
                            <polygon id="Fill-10" fill="#FFFFFF" points="84.0222222 14.1836989 84.0222222 35.3333333 88.2444444 35.3333333 88.2444444 11.3571429"></polygon>
                            <path d="M75.9998823,31.2038612 C71.5691356,31.2038612 67.9733309,27.6833381 67.9733309,23.3453533 C67.9733309,19.0071381 71.5691356,15.4868454 75.9998823,15.4868454 C80.4391009,15.4868454 84.0266691,19.0071381 84.0266691,23.3453533 C84.0266691,27.6833381 80.4391009,31.2038612 75.9998823,31.2038612 M75.9829388,11.3571429 C69.2003286,11.3571429 63.7555556,16.6881548 63.7555556,23.3619421 C63.7555556,30.0025518 69.2003286,35.3333333 75.9829388,35.3333333 C82.8079078,35.3333333 88.2444444,30.0025518 88.2444444,23.3619421 C88.2444444,16.6881548 82.8079078,11.3571429 75.9829388,11.3571429" id="Fill-12" fill="#FFFFFF"></path>
                            <polygon id="Fill-14" fill="#FFFFFF" points="56.1555556 15.0034194 57.4955819 22.8630608 60.3777778 23.1349206 60.3777778 12.1984127"></polygon>
                            <path d="M48.1332157,31.2038612 C43.7024689,31.2038612 40.1066642,27.6833381 40.1066642,23.3453533 C40.1066642,19.0071381 43.7024689,15.4868454 48.1332157,15.4868454 C52.5724342,15.4868454 56.1600024,19.0071381 56.1600024,23.3453533 C56.1600024,27.6833381 52.5724342,31.2038612 48.1332157,31.2038612 M48.1162721,11.3571429 C41.333662,11.3571429 35.8888889,16.6881548 35.8888889,23.3619421 C35.8888889,30.0025518 41.333662,35.3333333 48.1162721,35.3333333 C54.9412411,35.3333333 60.3777778,30.0025518 60.3777778,23.3619421 C60.3777778,16.6881548 54.9412411,11.3571429 48.1162721,11.3571429" id="Fill-16" fill="#FFFFFF"></path>
                            <path d="M56.5104006,40.3809524 C56.5104006,44.7950846 52.86174,48.3774057 48.3469264,48.3774057 C45.5170306,48.3774057 43.0234002,46.9637017 41.5586706,44.8192325 L38,47.2056491 C40.2270113,50.4531825 44.0113747,52.5793651 48.3296943,52.5793651 C55.2708851,52.5793651 60.8,47.1550089 60.8,40.3978324 L56.5104006,40.3809524 Z" id="Fill-18" fill="#FFFFFF"></path>
                        </g>
                    </g>
                    <path d="M145.196,14.652 C145.196,13.932 145.952,13.56 146.84,13.56 C147.884,13.56 148.592,14.112 148.928,15.12 L149.96,14.52 C149.492,13.188 148.364,12.432 146.852,12.432 C145.16,12.432 143.972,13.344 143.972,14.676 C143.972,16.092 145.112,16.848 146.672,17.148 C148.112,17.424 148.808,17.808 148.808,18.684 C148.808,19.428 148.136,20.04 147.02,20.04 C145.748,20.04 144.968,19.308 144.728,17.928 L143.588,18.516 C143.864,20.016 145.028,21.168 147.032,21.168 C148.928,21.168 150.104,19.992 150.104,18.636 C150.104,17.232 149.204,16.476 147.392,16.128 C145.916,15.84 145.196,15.408 145.196,14.652 Z M151.616,21 L151.616,12.6 L155.288,12.6 C157.124,12.6 158.312,13.596 158.312,15.276 C158.312,16.956 157.124,17.952 155.288,17.952 L152.912,17.952 L152.912,21 L151.616,21 Z M152.912,13.752 L152.912,16.8 L155.24,16.8 C156.404,16.8 157.016,16.212 157.016,15.276 C157.016,14.34 156.404,13.752 155.24,13.752 L152.912,13.752 Z M167.672,16.8 C167.672,19.356 165.848,21.168 163.484,21.168 C161.12,21.168 159.296,19.356 159.296,16.8 C159.296,14.244 161.12,12.432 163.484,12.432 C165.848,12.432 167.672,14.244 167.672,16.8 Z M163.484,19.992 C165.116,19.992 166.352,18.732 166.352,16.8 C166.352,14.868 165.116,13.608 163.484,13.608 C161.852,13.608 160.616,14.868 160.616,16.8 C160.616,18.732 161.852,19.992 163.484,19.992 Z M174.008,21 L172.052,17.46 L170.396,17.46 L170.396,21 L169.1,21 L169.1,12.6 L172.568,12.6 C174.332,12.6 175.412,13.596 175.412,14.976 C175.412,16.176 174.644,17.028 173.42,17.352 L175.508,21 L174.008,21 Z M170.396,13.728 L170.396,16.332 L172.484,16.332 C173.552,16.332 174.116,15.888 174.116,15.036 C174.116,14.184 173.552,13.728 172.484,13.728 L170.396,13.728 Z M176.132,13.776 L178.724,13.776 L178.724,21 L180.02,21 L180.02,13.776 L182.612,13.776 L182.612,12.6 L176.132,12.6 L176.132,13.776 Z M184.904,14.652 C184.904,13.932 185.66,13.56 186.548,13.56 C187.592,13.56 188.3,14.112 188.636,15.12 L189.668,14.52 C189.2,13.188 188.072,12.432 186.56,12.432 C184.868,12.432 183.68,13.344 183.68,14.676 C183.68,16.092 184.82,16.848 186.38,17.148 C187.82,17.424 188.516,17.808 188.516,18.684 C188.516,19.428 187.844,20.04 186.728,20.04 C185.456,20.04 184.676,19.308 184.436,17.928 L183.296,18.516 C183.572,20.016 184.736,21.168 186.74,21.168 C188.636,21.168 189.812,19.992 189.812,18.636 C189.812,17.232 188.912,16.476 187.1,16.128 C185.624,15.84 184.904,15.408 184.904,14.652 Z M143.072,35 L146.432,26.6 L147.728,26.6 L151.088,35 L149.72,35 L148.82,32.66 L145.34,32.66 L144.44,35 L143.072,35 Z M147.08,28.076 C147.08,28.076 146.96,28.448 146.792,28.88 L145.772,31.532 L148.388,31.532 L147.368,28.88 C147.2,28.448 147.08,28.076 147.08,28.076 Z M156.836,35 L154.88,31.46 L153.224,31.46 L153.224,35 L151.928,35 L151.928,26.6 L155.396,26.6 C157.16,26.6 158.24,27.596 158.24,28.976 C158.24,30.176 157.472,31.028 156.248,31.352 L158.336,35 L156.836,35 Z M153.224,27.728 L153.224,30.332 L155.312,30.332 C156.38,30.332 156.944,29.888 156.944,29.036 C156.944,28.184 156.38,27.728 155.312,27.728 L153.224,27.728 Z M166.112,32.252 C165.476,33.452 164.588,33.992 163.46,33.992 C161.804,33.992 160.592,32.624 160.592,30.8 C160.592,28.952 161.888,27.608 163.472,27.608 C164.624,27.608 165.452,28.184 166.052,29.348 L167.084,28.604 C166.508,27.332 165.212,26.432 163.496,26.432 C161.168,26.432 159.272,28.232 159.272,30.8 C159.272,33.368 161.048,35.168 163.436,35.168 C165.248,35.168 166.232,34.388 167.108,32.96 L166.112,32.252 Z M168.452,35 L169.748,35 L169.748,31.304 L173.66,31.304 L173.66,35 L174.956,35 L174.956,26.6 L173.66,26.6 L173.66,30.128 L169.748,30.128 L169.748,26.6 L168.452,26.6 L168.452,35 Z M176.78,35 L178.076,35 L178.076,26.6 L176.78,26.6 L176.78,35 Z M179.264,27.776 L181.856,27.776 L181.856,35 L183.152,35 L183.152,27.776 L185.744,27.776 L185.744,26.6 L179.264,26.6 L179.264,27.776 Z M186.932,35 L192.488,35 L192.488,33.848 L188.228,33.848 L188.228,31.232 L192.116,31.232 L192.116,30.08 L188.228,30.08 L188.228,27.752 L192.452,27.752 L192.452,26.6 L186.932,26.6 L186.932,35 Z M200.324,32.252 C199.688,33.452 198.8,33.992 197.672,33.992 C196.016,33.992 194.804,32.624 194.804,30.8 C194.804,28.952 196.1,27.608 197.684,27.608 C198.836,27.608 199.664,28.184 200.264,29.348 L201.296,28.604 C200.72,27.332 199.424,26.432 197.708,26.432 C195.38,26.432 193.484,28.232 193.484,30.8 C193.484,33.368 195.26,35.168 197.648,35.168 C199.46,35.168 200.444,34.388 201.32,32.96 L200.324,32.252 Z M202.028,27.776 L204.62,27.776 L204.62,35 L205.916,35 L205.916,27.776 L208.508,27.776 L208.508,26.6 L202.028,26.6 L202.028,27.776 Z M216.116,26.6 L214.82,26.6 L214.82,31.976 C214.82,33.152 214.088,33.992 212.84,33.992 C211.592,33.992 210.86,33.152 210.86,31.976 L210.86,26.6 L209.564,26.6 L209.564,32.012 C209.564,34.04 210.944,35.168 212.84,35.168 C214.736,35.168 216.116,34.04 216.116,32.012 L216.116,26.6 Z M222.728,35 L220.772,31.46 L219.116,31.46 L219.116,35 L217.82,35 L217.82,26.6 L221.288,26.6 C223.052,26.6 224.132,27.596 224.132,28.976 C224.132,30.176 223.364,31.028 222.14,31.352 L224.228,35 L222.728,35 Z M219.116,27.728 L219.116,30.332 L221.204,30.332 C222.272,30.332 222.836,29.888 222.836,29.036 C222.836,28.184 222.272,27.728 221.204,27.728 L219.116,27.728 Z M225.56,35 L231.116,35 L231.116,33.848 L226.856,33.848 L226.856,31.232 L230.744,31.232 L230.744,30.08 L226.856,30.08 L226.856,27.752 L231.08,27.752 L231.08,26.6 L225.56,26.6 L225.56,35 Z" id="SPORTS-ARCHITECTURE" fill="#FFFFFF"></path>
                </g>
            </g>
        </g>
    </g>
</svg>