<?xml version="1.0" encoding="UTF-8"?>
<svg width="251px" height="99px" viewBox="0 0 251 99" version="1.1" xmlns="http://www.w3.org/2000/svg" xmlns:xlink="http://www.w3.org/1999/xlink">
    <!-- Generator: Sketch 44.1 (41455) - http://www.bohemiancoding.com/sketch -->
    <title>logoblack</title>
    <desc>Created with Sketch.</desc>
    <defs>
        <polygon id="path-1" points="46.6487982 45.3904883 46.6487982 0.225730476 0.24139607 0.225730476 0.24139607 45.3904883"></polygon>
    </defs>
    <g id="Page-1" stroke="none" stroke-width="1" fill="none" fill-rule="evenodd">
        <g id="Teaser-[1440px]-State-1" transform="translate(-618.000000, -392.000000)">
            <g id="Group-4" transform="translate(330.000000, 384.000000)">
                <g id="logowhite" transform="translate(288.000000, 8.000000)">
                    <g id="Page-1" transform="translate(0.000000, 0.785714)">
                        <path d="M52.6909713,39.4932127 C52.5629101,35.8630357 51.3798038,32.8662979 49.1367099,30.5082305 C46.8886732,28.1458036 43.6768071,26.9665519 39.4966182,26.9665519 C37.5640166,26.9665519 35.768463,27.3170578 34.1149002,28.0084785 C32.4653813,28.7042588 31.0126724,29.630658 29.7653109,30.7785211 C28.5179494,31.9311796 27.5037941,33.2608349 26.7268892,34.7727184 C25.9459402,36.2885254 25.4934571,37.8575187 25.3703385,39.4932127 L52.6909713,39.4932127 Z M61.1111111,42.3966567 L61.1111111,43.8945897 C61.1111111,44.4133732 61.0792081,44.9408758 61.0149528,45.4862525 L25.3703385,45.4862525 C25.4296511,47.4231897 25.8497819,49.2228018 26.6311802,50.8850889 C27.4125785,52.5517355 28.4541434,53.9877633 29.7653109,55.1979676 C31.0764784,56.4081719 32.6208522,57.3786022 34.3979829,58.1014116 C36.1751137,58.8281445 38.0618828,59.1917289 40.0587397,59.1917289 C43.1789409,59.1917289 45.842615,58.5133868 48.0582993,57.1484193 C50.2694903,55.7873754 51.9738283,54.2314607 53.1569346,52.4763157 L59.4251959,56.8336616 C56.9309222,60.0427083 54.0614514,62.3698231 50.8176823,63.8237248 C47.5739132,65.2732671 43.9877488,66 40.0587397,66 C36.7507153,66 33.6624171,65.4550593 30.7933956,64.3691015 C27.9239249,63.2783482 25.448074,61.735948 23.3555082,59.7366696 C21.2674357,57.7421867 19.627353,55.3488071 18.4442467,52.5648141 C17.2606911,49.781257 16.6666667,46.6960208 16.6666667,43.3051818 C16.6666667,39.9806076 17.2427176,36.9045264 18.3984143,34.0943762 C19.5496176,31.2794306 21.1577973,28.8594579 23.2184601,26.8292269 C25.2741803,24.8037913 27.6911679,23.2300026 30.4689738,22.1087326 C33.2422863,20.9913862 36.2528491,20.4285714 39.4966182,20.4285714 C42.9277611,20.4285714 45.9841564,20.9913862 48.6658039,22.1087326 C51.3479009,23.2300026 53.6094177,24.7724027 55.4503544,26.7407285 C57.287247,28.7042588 58.6941234,31.0226545 59.6628956,33.6819651 C60.626725,36.3460712 61.1111111,39.2538747 61.1111111,42.3966567 L61.1111111,42.3966567 Z" id="Fill-1" fill="#FFFFFF"></path>
                        <polygon id="Fill-3" fill="#FFFFFF" points="0 5.38251966 0 66.7857143 7.93650794 66.7857143 7.93650794 0"></polygon>
                        <path d="M174.603175,14.0602973 L182.367265,8.64285714 L182.367265,22.7812807 L200.332927,22.7812807 L200.332927,30.6380703 L182.367265,30.6380703 L182.367265,47.4437044 C182.367265,55.2519189 184.880385,60.1005896 191.078366,59.7605645 C192.63442,59.6748958 193.340961,59.2213817 194.046192,58.8809149 C194.568228,58.6287664 195.481136,57.9959663 195.606617,57.919571 C196.134338,57.5967679 196.563247,57.2836798 197.291212,56.8359063 L201.587302,63.39221 C198.974059,65.5917755 194.509641,67.5714286 189.065421,67.5714286 C178.068552,67.5714286 174.603175,60.9705242 174.603175,48.3237955 L174.603175,14.0602973 Z" id="Fill-5" fill="#FFFFFF"></path>
                        <g id="Group-9" transform="translate(203.968254, 20.428571)">
                            <mask id="mask-2" fill="white">
                                <use xlink:href="#path-1"></use>
                            </mask>
                            <g id="Clip-8"></g>
                            <path d="M23.444941,37.6116624 C15.0484785,37.6116624 8.23426833,30.9799346 8.23426833,22.8083264 C8.23426833,14.6362842 15.0484785,8.00499034 23.444941,8.00499034 C31.857458,8.00499034 38.6560597,14.6362842 38.6560597,22.8083264 C38.6560597,30.9799346 31.857458,37.6116624 23.444941,37.6116624 M23.4123862,0.225730476 C10.5594837,0.225730476 0.24139607,10.2679373 0.24139607,22.8395754 C0.24139607,35.3487155 10.5594837,45.3904883 23.4123862,45.3904883 C36.3464528,45.3904883 46.648932,35.3487155 46.648932,22.8395754 C46.648932,10.2679373 36.3464528,0.225730476 23.4123862,0.225730476" id="Fill-7" fill="#FFFFFF" mask="url(#mask-2)"></path>
                        </g>
                        <polygon id="Fill-10" fill="#FFFFFF" points="157.936508 26.4940791 157.936508 66 165.873016 66 165.873016 21.2142857"></polygon>
                        <path d="M142.856922,58.2864577 C134.52845,58.2864577 127.769419,51.7103863 127.769419,43.607358 C127.769419,35.5038994 134.52845,28.9282584 142.856922,28.9282584 C151.201317,28.9282584 157.944867,35.5038994 157.944867,43.607358 C157.944867,51.7103863 151.201317,58.2864577 142.856922,58.2864577 M142.825073,21.2142857 C130.075806,21.2142857 119.84127,31.1722137 119.84127,43.6383448 C119.84127,56.0425024 130.075806,66 142.825073,66 C155.653962,66 165.873016,56.0425024 165.873016,43.6383448 C165.873016,31.1722137 155.653962,21.2142857 142.825073,21.2142857" id="Fill-12" fill="#FFFFFF"></path>
                        <polygon id="Fill-14" fill="#FFFFFF" points="105.555556 28.0252551 108.074402 42.706472 113.492063 43.2142857 113.492063 22.7857143"></polygon>
                        <path d="M90.4759693,58.2864577 C82.147498,58.2864577 75.3884666,51.7103863 75.3884666,43.607358 C75.3884666,35.5038994 82.147498,28.9282584 90.4759693,28.9282584 C98.8203651,28.9282584 105.563914,35.5038994 105.563914,43.607358 C105.563914,51.7103863 98.8203651,58.2864577 90.4759693,58.2864577 M90.4441205,21.2142857 C77.6948533,21.2142857 67.4603175,31.1722137 67.4603175,43.6383448 C67.4603175,56.0425024 77.6948533,66 90.4441205,66 C103.27301,66 113.492063,56.0425024 113.492063,43.6383448 C113.492063,31.1722137 103.27301,21.2142857 90.4441205,21.2142857" id="Fill-16" fill="#FFFFFF"></path>
                        <path d="M106.222557,75.4285714 C106.222557,83.6738373 99.3641729,90.3653426 90.8776813,90.3653426 C85.5583281,90.3653426 80.8710531,87.7246504 78.117802,83.7189437 L71.4285714,88.1765898 C75.6146828,94.2427372 82.7281479,98.2142857 90.8452901,98.2142857 C103.892641,98.2142857 114.285714,88.0819978 114.285714,75.4601021 L106.222557,75.4285714 Z" id="Fill-18" fill="#FFFFFF"></path>
                    </g>
                </g>
            </g>
        </g>
    </g>
</svg>